%
M48
M72
T01C0.0236
T02C0.0394
T03C0.0400
T04C0.0472
T05C0.0985
%
T01
X4925Y9307
X4925Y10292
X4925Y12260
X4925Y13244
X2956Y11276
T02
X8443Y5642
X8443Y4658
T03
X8445Y21209
X8445Y22209
X7445Y22209
X7445Y21209
X6445Y21209
X6445Y22209
X5445Y22209
X5445Y21209
X4445Y21209
X4445Y22209
X9445Y22209
X9445Y21209
T04
X4925Y11276
X2956Y13244
X1972Y13244
X1972Y9307
X2956Y9307
T05
X2528Y2418
X8630Y2418
X2528Y21709
M30
